# xmcd
# 
# Track frame offsets:
#     150
#     16902
#     31065
#     44715
#     56935
#     74912
#     90582
#     100612
#     116962
#     133780
#     151665
#     164162
#     178595
#     192572
#     207747
#     222817
#     240517
#     255870
#     270027
#     284317
#     302600
#     315762
# 
# Disc length: 4384
# 
# Revision: 0
# Processed by: cddbd v1.5.2PL0 Copyright (c) Steve Scherf et al.
# Submitted via: fre:ac v1.0.17
# 
DISCID=39111e16
DTITLE=Flophouse String Band - Country-Rendezvous
DYEAR=1983
DGENRE=Country
TTITLE0=Rendezvous
TTITLE1=Blue Kentucky Girl
TTITLE2=Down the road I go
TTITLE3=I wish I was in Nashville
TTITLE4=(He's an) Old hippie
TTITLE5=Dixie Road
TTITLE6=Comin' closer
TTITLE7=Golden rings
TTITLE8=Serious
TTITLE9=If I needed you
TTITLE10=I am for love
TTITLE11=Stay young
TTITLE12=Washington
TTITLE13=I never need another you
TTITLE14=Rose of Cimarron
TTITLE15=Me and Bobby McGee
TTITLE16=I love you only
TTITLE17=Golden Rocket
TTITLE18=Country on my headphones
TTITLE19=Tonight the bottle let me down
TTITLE20=In the jailhouse now
TTITLE21=San Quentin
EXTD=
EXTT0=
EXTT1=
EXTT2=
EXTT3=
EXTT4=
EXTT5=
EXTT6=
EXTT7=
EXTT8=
EXTT9=
EXTT10=
EXTT11=
EXTT12=
EXTT13=
EXTT14=
EXTT15=
EXTT16=
EXTT17=
EXTT18=
EXTT19=
EXTT20=
EXTT21=Recorder live on 24.12.1983 - Jailhouse, ESSEN
PLAYORDER=
